<svg width="16" height="16" viewBox="0 0 48 48" fill="none" xmlns="http://www.w3.org/2000/svg">
<path d="M23.1215 7.22747C23.3235 7.02549 23.6022 6.91952 23.8873 6.9363L34.5725 7.56484C35.0786 7.59461 35.4823 7.99833 35.5121 8.50439L36.1406 19.1896C36.1574 19.4747 36.0514 19.7534 35.8494 19.9554L22.0248 33.78C21.6343 34.1705 21.0012 34.1705 20.6106 33.78L9.29692 22.4663C8.9064 22.0758 8.9064 21.4426 9.29692 21.0521L23.1215 7.22747Z" stroke="#4E5969" stroke-width="4"/>
<path d="M27.6984 15.2929C27.3078 14.9024 27.3078 14.2692 27.6984 13.8787C28.0889 13.4882 28.7221 13.4882 29.1126 13.8787C29.5031 14.2692 29.5031 14.9024 29.1126 15.2929C28.7221 15.6834 28.0889 15.6834 27.6984 15.2929Z" stroke="#4E5969" stroke-width="4"/>
<path d="M27.6976 15.2922C27.3071 14.9017 27.3071 14.2685 27.6976 13.878C28.0882 13.4875 28.7213 13.4875 29.1119 13.878C29.5024 14.2685 29.5024 14.9017 29.1119 15.2922C28.7213 15.6827 28.0882 15.6827 27.6976 15.2922Z" fill="#4E5969" stroke="#4E5969" stroke-width="4"/>
<path d="M37.5815 28.1229L22.7323 42.9721C22.3418 43.3626 21.7086 43.3626 21.3181 42.9721L8.59015 30.2442" stroke="#4E5969" stroke-width="4"/>
</svg>
